<svg width="82" height="60" viewBox="0 0 82 60" fill="none" xmlns="http://www.w3.org/2000/svg">
<g clip-path="url(#clip0_1_711)">
<path d="M10.9655 21.3769L5.51123 34.5302H7.82158L8.84125 31.9932H14.5394L15.5497 34.5302H17.8973L12.4808 21.3769H10.9655ZM9.59606 30.1139L11.7026 24.8702L13.7904 30.1139H9.59606Z" fill="#13ACA9"/>
<path d="M26.2343 27.6623C26.6325 27.4304 27.0896 27.3141 27.6078 27.3141C28.0498 27.3141 28.4565 27.3934 28.8292 27.5496C29.2019 27.7062 29.5213 27.9409 29.7858 28.2537L31.1498 26.8817C30.7197 26.3818 30.199 25.9962 29.5869 25.7269C28.9748 25.4576 28.3151 25.3226 27.6078 25.3226C26.7112 25.3226 25.9002 25.5292 25.1737 25.9429C24.448 26.3554 23.8764 26.9171 23.4607 27.6241C23.0437 28.3318 22.8354 29.1311 22.8354 30.0203C22.8354 30.9095 23.0437 31.6922 23.4607 32.4064C23.8764 33.1207 24.4484 33.6841 25.1737 34.0978C25.9002 34.5102 26.7112 34.7173 27.6078 34.7173C28.3147 34.7173 28.9748 34.5831 29.5869 34.3138C30.199 34.0445 30.7202 33.6589 31.1498 33.1581L29.7858 31.7861C29.5209 32.0989 29.2019 32.3349 28.8292 32.491C28.4565 32.6477 28.0502 32.7258 27.6078 32.7258C27.0896 32.7258 26.6325 32.6102 26.2343 32.3784C25.8375 32.1465 25.5275 31.8268 25.3069 31.42C25.0855 31.0129 24.9756 30.5455 24.9756 30.0203C24.9756 29.4952 25.0855 29.0115 25.3069 28.6101C25.5275 28.2094 25.8375 27.8937 26.2343 27.6619V27.6623Z" fill="#13ACA9"/>
<path d="M39.0467 26.5132C38.7847 26.2134 38.4723 25.9636 38.109 25.7643C37.5719 25.4698 36.9573 25.323 36.2624 25.323C35.4408 25.323 34.7003 25.5325 34.0365 25.9527C33.3735 26.3728 32.85 26.9362 32.465 27.6432C32.0792 28.351 31.8877 29.1499 31.8877 30.0395C31.8877 30.9291 32.0792 31.7084 32.465 32.4162C32.85 33.124 33.3735 33.6845 34.0365 34.0982C34.7003 34.5107 35.4408 34.7177 36.2624 34.7177C36.9569 34.7177 37.5756 34.5705 38.1181 34.2764C38.4797 34.0799 38.7892 33.8358 39.0467 33.5425V34.5306H41.1299V25.5113H39.0467V26.5136V26.5132ZM38.4682 31.9932C37.9951 32.5073 37.3727 32.7636 36.6031 32.7636C36.098 32.7636 35.6531 32.6481 35.2681 32.4162C34.8823 32.1843 34.5802 31.8622 34.3584 31.4485C34.1378 31.0352 34.0271 30.5589 34.0271 30.0207C34.0271 29.4826 34.1378 29.0054 34.3584 28.5922C34.5798 28.1785 34.8819 27.8563 35.2681 27.6245C35.6531 27.3934 36.098 27.2771 36.6031 27.2771C37.1082 27.2771 37.5719 27.3934 37.9577 27.6245C38.3427 27.8563 38.642 28.1785 38.8569 28.5922C39.0709 29.0054 39.1787 29.4818 39.1787 30.0207C39.1787 30.8225 38.9422 31.4802 38.4682 31.9932Z" fill="#13ACA9"/>
<path d="M50.5334 25.9522C49.8696 25.5321 49.1279 25.3226 48.3075 25.3226C47.626 25.3226 47.0127 25.4698 46.4703 25.7639C46.1033 25.9632 45.7868 26.213 45.5231 26.5128V25.5105H43.4399V38.2875H45.5231V33.5434C45.7802 33.8358 46.0902 34.0799 46.4514 34.2751C46.9938 34.5696 47.6125 34.7165 48.3075 34.7165C49.1279 34.7165 49.8696 34.5098 50.5334 34.097C51.1959 33.6833 51.7199 33.1228 52.1049 32.415C52.4899 31.7072 52.6822 30.9144 52.6822 30.0382C52.6822 29.1621 52.4899 28.3497 52.1049 27.642C51.7199 26.935 51.1963 26.3716 50.5334 25.9514V25.9522ZM50.2115 31.4481C49.9901 31.8618 49.6867 32.1839 49.3017 32.4158C48.9167 32.6477 48.4719 32.7632 47.9668 32.7632C47.4616 32.7632 47.0131 32.6477 46.6215 32.4158C46.23 32.1839 45.9278 31.8618 45.713 31.4481C45.4981 31.0348 45.3911 30.5585 45.3911 30.0203C45.3911 29.4822 45.4981 29.005 45.713 28.5918C45.9278 28.1781 46.2304 27.8559 46.6215 27.6241C47.0131 27.393 47.4616 27.2767 47.9668 27.2767C48.4719 27.2767 48.9167 27.393 49.3017 27.6241C49.6867 27.8559 49.9897 28.1781 50.2115 28.5918C50.4321 29.005 50.5428 29.4814 50.5428 30.0203C50.5428 30.5593 50.4321 31.0344 50.2115 31.4481Z" fill="#13ACA9"/>
<path d="M60.7788 25.9051C60.1281 25.5178 59.3799 25.323 58.5344 25.323C57.689 25.323 56.8711 25.5296 56.1577 25.9433C55.4443 26.3558 54.8793 26.9175 54.4631 27.6245C54.0466 28.3322 53.8379 29.1315 53.8379 30.0207C53.8379 30.9099 54.049 31.7113 54.4726 32.4256C54.8949 33.1398 55.4697 33.7004 56.1962 34.1075C56.9219 34.5147 57.7394 34.7177 58.648 34.7177C59.3548 34.7177 60.0244 34.5863 60.6562 34.3235C61.2872 34.06 61.8239 33.6727 62.2663 33.1586L60.9399 31.8239C60.6619 32.138 60.3249 32.3755 59.9268 32.5382C59.5287 32.7013 59.0961 32.7823 58.6296 32.7823C58.0871 32.7823 57.6074 32.6668 57.1905 32.4349C56.7739 32.2031 56.4516 31.8744 56.2245 31.4485C56.1154 31.2447 56.033 31.0259 55.9769 30.7912H62.7583C62.7968 30.6028 62.8251 30.4308 62.844 30.2742C62.8628 30.1176 62.8722 29.9642 62.8722 29.8141C62.8722 28.9497 62.6865 28.1785 62.3138 27.5024C61.9411 26.8264 61.4303 26.2935 60.78 25.9051H60.7788ZM55.9826 29.0998C56.0351 28.8875 56.1093 28.6902 56.2052 28.5084C56.4193 28.1012 56.7227 27.7847 57.1138 27.5594C57.5053 27.334 57.9662 27.2214 58.4967 27.2214C59.0273 27.2214 59.4278 27.321 59.7751 27.5212C60.1216 27.7225 60.3901 28.0101 60.5795 28.3855C60.6857 28.5962 60.7665 28.8346 60.8198 29.0998H55.9826Z" fill="#13ACA9"/>
<path d="M66.6218 21.0015H64.5386V34.5302H66.6218V21.0015Z" fill="#13ACA9"/>
<path d="M71.0148 21.0015H68.9316V34.5302H71.0148V21.0015Z" fill="#13ACA9"/>
<path d="M79.9161 25.5109V26.512C79.6541 26.2122 79.3417 25.9632 78.9792 25.7639C78.4421 25.4694 77.8263 25.3226 77.1326 25.3226C76.3114 25.3226 75.5697 25.5321 74.9067 25.9522C74.2437 26.3724 73.7202 26.9358 73.3352 27.6428C72.9494 28.3506 72.7571 29.1494 72.7571 30.039C72.7571 30.9287 72.9494 31.708 73.3352 32.4158C73.7202 33.1236 74.2437 33.6841 74.9067 34.0978C75.5697 34.5102 76.311 34.7173 77.1326 34.7173C77.8263 34.7173 78.445 34.57 78.9887 34.276C79.3491 34.0803 79.659 33.8362 79.9161 33.5442V34.5306H82.0001V25.5113H79.9161V25.5109ZM79.3388 31.9932C78.8657 32.5073 78.2433 32.7636 77.4737 32.7636C76.9686 32.7636 76.5237 32.6481 76.1388 32.4162C75.7529 32.1843 75.4495 31.8622 75.229 31.4485C75.0084 31.0352 74.8977 30.5589 74.8977 30.0207C74.8977 29.4826 75.0084 29.0054 75.229 28.5922C75.4495 28.1785 75.7529 27.8563 76.1388 27.6245C76.5237 27.3934 76.9686 27.2771 77.4737 27.2771C77.9788 27.2771 78.4425 27.3934 78.8275 27.6245C79.2133 27.8563 79.5131 28.1785 79.7279 28.5922C79.9419 29.0054 80.0502 29.4818 80.0502 30.0207C80.0502 30.8225 79.8136 31.4802 79.3396 31.9932H79.3388Z" fill="#13ACA9"/>
<path d="M39.0563 36.804V39.5595C37.9784 38.8257 36.6061 38.4226 35.1642 38.4226C33.6246 38.4226 32.1679 38.8806 31.0593 39.7112C29.8641 40.6065 29.2061 41.8244 29.2061 43.1386C29.2061 44.4529 29.8645 45.6712 31.0593 46.5661C32.1679 47.3967 33.6246 47.8547 35.1642 47.8547C35.7382 47.8547 36.2991 47.79 36.8353 47.6676C37.7295 47.4642 38.5536 47.0965 39.2445 46.5819C39.2527 46.577 39.2609 46.5722 39.2687 46.5657C40.4638 45.6704 41.1219 44.4525 41.1219 43.1382C41.1219 43.1142 41.1211 43.0914 41.1211 43.0687V36.804H39.0559H39.0563ZM35.1642 45.8046C33.0539 45.8046 31.272 44.5835 31.272 43.1382C31.272 41.693 33.0539 40.4702 35.1642 40.4702C37.2744 40.4702 39.0563 41.6913 39.0563 43.1382C39.0563 44.5851 37.2744 45.8046 35.1642 45.8046Z" fill="#13ACA9"/>
<path d="M54.592 44.04C54.2456 44.6319 53.8766 45.2095 53.4866 45.7725C48.4059 53.1211 39.8804 57.9519 30.2396 57.9519C24.3951 57.9519 18.9618 56.1776 14.4567 53.1419L13.3169 54.8727C18.2738 58.2082 24.1167 60.0004 30.2396 60.0004C38.3166 60.0004 45.9086 56.8809 51.6203 51.2146C52.9647 49.8808 54.1664 48.4453 55.2197 46.9224C55.61 46.3562 55.9807 45.7806 56.3284 45.1916L54.592 44.04Z" fill="#13ACA9"/>
<path d="M30.2395 2.04808C33.317 2.04808 36.2809 2.54149 39.0562 3.45143C39.4227 3.57143 39.7852 3.69875 40.1447 3.83298C40.4727 3.95582 40.7979 4.08436 41.121 4.219H41.1226C46.159 6.31915 50.4562 9.832 53.5062 14.2548L55.2377 13.1065C54.1811 11.5742 52.9728 10.1273 51.6202 8.78702C48.5834 5.77245 45.0131 3.48031 41.1226 1.99317H41.1218C41.0185 1.95371 40.9143 1.91669 40.8106 1.87846C40.6839 1.83168 40.5572 1.78327 40.4301 1.73812C37.2026 0.595102 33.7672 0 30.2395 0C22.1625 0 14.5669 3.12073 8.85559 8.78702C7.96794 9.66767 7.1422 10.5951 6.3796 11.56C5.95525 12.1001 5.5473 12.6534 5.16354 13.2179C1.80482 18.1342 0 23.9294 0 30.0008C0 34.2898 0.90077 38.4429 2.6158 42.2445L4.50672 41.3802C2.93806 37.9027 2.06476 34.051 2.06476 30.0008C2.06476 24.2133 3.84662 18.8309 6.89497 14.3663C7.28201 13.8 7.68996 13.2485 8.11595 12.7115C13.2779 6.22071 21.2765 2.04808 30.2395 2.04808Z" fill="#13ACA9"/>
<path d="M15.4041 49.7157C16.1437 49.7157 16.8657 49.6107 17.5385 49.4077C18.2655 49.1901 18.9334 48.8594 19.509 48.4286C19.6197 48.3449 19.7267 48.2578 19.8309 48.1687C20.3917 47.6786 20.8079 47.1091 21.0633 46.4896C21.2601 46.0185 21.361 45.517 21.361 45.0008V44.9992C21.361 44.9992 21.361 44.9951 21.361 44.9931V13.3501C24.0108 11.9533 27.0333 11.1613 30.2391 11.1613C33.4449 11.1613 36.4203 11.9419 39.0558 13.318V22.6411H41.1209V14.5688L41.1217 14.5696V12.1099C41.1217 12.1099 41.1213 12.1091 41.1209 12.1091V9.52977L41.1217 9.53059C44.4739 11.2919 47.3435 13.8403 49.48 16.926L51.2098 15.7794C50.3287 14.505 49.3205 13.3017 48.1955 12.1843C46.1045 10.1119 43.715 8.4437 41.1217 7.22299H41.1205C41.0434 7.18679 40.9655 7.15221 40.888 7.11642C40.6265 6.99601 40.3637 6.87886 40.0988 6.76782C39.9557 6.70802 39.8114 6.65067 39.6671 6.59372C39.4641 6.51318 39.2603 6.43467 39.0553 6.35942C36.2702 5.3368 33.2953 4.80475 30.2387 4.80475C27.1822 4.80475 24.1633 5.34494 21.3606 6.38057C21.1851 6.44525 21.0112 6.51114 20.837 6.5807C20.639 6.6588 20.4426 6.74016 20.247 6.82354C19.9957 6.93012 19.7468 7.04198 19.4992 7.15669C19.4315 7.18801 19.3635 7.21811 19.2958 7.25024C16.7255 8.46974 14.3553 10.1277 12.2807 12.1843C11.619 12.8409 10.9995 13.5279 10.4193 14.241L12.154 15.3925C14.113 13.0089 16.5414 11.0202 19.2954 9.56394V41.4208C18.9038 41.1548 18.4762 40.9323 18.0182 40.7582C17.2151 40.4487 16.3241 40.2856 15.4041 40.2856C15.2676 40.2856 15.1327 40.2888 14.9978 40.2969C14.7911 40.3067 14.5849 40.3258 14.3815 40.3551C13.6452 40.4535 12.9429 40.6614 12.3069 40.9632C11.9478 41.1373 11.6095 41.3407 11.2988 41.5746C10.9945 41.802 10.7248 42.0505 10.4923 42.3165C10.0811 42.7876 9.7834 43.3119 9.61448 43.8684C9.54929 44.0815 9.50214 44.2991 9.47467 44.52C9.45499 44.6799 9.44556 44.8393 9.44556 45.0008C9.44556 45.4491 9.52182 45.8831 9.66819 46.2992C9.95437 47.1058 10.5087 47.838 11.2988 48.4299C12.1442 49.0636 13.193 49.4797 14.3258 49.6412C14.6784 49.6913 15.0396 49.7169 15.4037 49.7169L15.4041 49.7157ZM30.2395 6.85486C33.358 6.85486 36.3346 7.46461 39.0562 8.57102V11.021C36.328 9.77099 33.3334 9.11121 30.2395 9.11121C27.1457 9.11121 24.1055 9.77912 21.3614 11.0466V8.59665C24.099 7.47397 27.0989 6.85486 30.2395 6.85486ZM13.507 42.6851C14.0712 42.4609 14.7198 42.3336 15.4041 42.3336C15.4803 42.3336 15.557 42.3353 15.6333 42.3401C15.7292 42.3434 15.8235 42.3499 15.9178 42.3593C17.7895 42.5362 19.2884 43.6686 19.2954 44.9902V45.0008H19.2962C19.2962 45.1253 19.2831 45.2449 19.2589 45.3624C19.1257 45.9978 18.6525 46.5689 17.9731 46.9834C17.2823 47.406 16.3782 47.6672 15.4045 47.6672C15.3282 47.6672 15.2516 47.6656 15.1753 47.6623C13.2016 47.5801 11.5694 46.4347 11.5124 45.0736C11.5124 45.048 11.5107 45.0236 11.5107 44.9996C11.5107 44.6868 11.5952 44.3833 11.7481 44.0994C12.0732 43.5027 12.7055 42.9995 13.507 42.6847V42.6851Z" fill="#13ACA9"/>
<path d="M23.0842 52.0387L22.5508 53.4079L22.3347 53.9627C24.8464 54.7742 27.5015 55.1953 30.2198 55.1953C33.2989 55.1953 36.2952 54.6551 39.0984 53.6211C39.7991 53.3611 40.4883 53.0711 41.1631 52.7502C43.7334 51.5323 46.1024 49.8743 48.1766 47.8161C48.8383 47.1595 49.4595 46.4741 50.038 45.7594L48.3033 44.6095C46.3443 46.9919 43.9167 48.9823 41.1627 50.4389C40.4928 50.7936 39.8036 51.1162 39.098 51.405C36.36 52.5277 33.3604 53.1472 30.2194 53.1472C27.732 53.1472 25.3355 52.7583 23.0854 52.0391H23.0838L23.0842 52.0387Z" fill="#13ACA9"/>
</g>
<defs>
<clipPath id="clip0_1_711">
<rect width="82" height="60" fill="white"/>
</clipPath>
</defs>
</svg>
